:SAMPLES-PER-SECOND 30
:FULLY-SPECIFIED
:DEGREES
285
root  -0.806225 33.7216 10.8345 -29.3504 -69.3266 31.4618
RightUpLeg  3.04006 -22.6218 -52.8239
RightLeg  6.2586 -25.3576 -7.46258
RightFoot  37.8288 -9.71446 21.6256
RightToes  -6.40286e-010 0 -3.6325e-017
Spine  26.9181 10.3788 24.6122
Spine1  -26.5411 13.7346 -15.5465
HEad  32.8891 -52.6763 -10.9257
LeftShoulder1  -0.424622 11.0791 3.28676
LeftArm  -37.1467 28.2308 -30.3061
LeftForeArm  -29.9529 -14.3877 -3.19165
LeftHand  -0.710477 2.61238 29.355
RightShoulder  -0.151277 -9.19137 -6.5777
RightArm  -37.2713 -12.5413 -10.6532
RightForeArm  -42.645 14.623 0.757316
RightHand  -0.460317 -0.554904 -11.0451
LeftUpLeg  -33.754 45.8991 8.49227
LeftLeg  56.6686 -16.0136 -23.9373
LeftFoot  0.0913266 1.76806 -17.5471
LeftToes  -2.09187e-010 -4.93792e-011 -8.21189e-011
286
root  -0.944575 33.8942 11.8636 -29.9506 -71.6596 31.6593
RightUpLeg  3.31234 -27.4511 -52.1282
RightLeg  1.2036 -23.5924 -4.77397
RightFoot  43.7493 -8.09789 16.0397
RightToes  -6.40286e-010 0 -3.6325e-017
Spine  27.4372 11.1597 24.7119
Spine1  -27.2074 14.6645 -15.1444
HEad  28.4625 -51.2994 -9.20951
LeftShoulder1  -0.35237 11.7446 4.80448
LeftArm  -36.2412 24.8938 -25.0219
LeftForeArm  -27.756 -14.7761 -3.53407
LeftHand  -0.640243 2.80976 28.5115
RightShoulder  -0.180888 -8.33749 -5.35104
RightArm  -35.7579 -15.5614 -6.71831
RightForeArm  -45.0724 13.6358 0.108115
RightHand  -0.480938 -0.586365 -11.6112
LeftUpLeg  -31.7807 45.6357 10.1139
LeftLeg  57.9488 -14.6156 -23.1007
LeftFoot  -2.8324 1.29648 -17.1043
LeftToes  -2.09187e-010 -4.93792e-011 -8.21189e-011
287
root  -1.0456 33.9688 12.6136 -30.7732 -73.6307 31.9619
RightUpLeg  2.78737 -27.1091 -50.8877
RightLeg  -0.555594 -23.6015 -3.35899
RightFoot  45.6546 -6.92206 13.3347
RightToes  -6.40286e-010 0 -3.6325e-017
Spine  27.6754 11.38 23.6575
Spine1  -27.2497 14.8399 -13.7911
HEad  23.7436 -49.0826 -7.61548
LeftShoulder1  -0.261719 12.1086 6.20676
LeftArm  -36.1896 21.1539 -19.5594
LeftForeArm  -24.9343 -14.8988 -3.63238
LeftHand  -0.630621 2.83552 28.3563
RightShoulder  -0.195553 -7.54945 -4.11444
RightArm  -36.26 -19.3291 -1.1113
RightForeArm  -45.5645 14.0529 0.0755317
RightHand  -0.523327 -0.467559 -12.3429
LeftUpLeg  -29.8019 43.6525 11.6205
LeftLeg  58.4858 -12.9704 -21.1425
LeftFoot  -6.13564 0.844117 -17.7026
LeftToes  -2.09187e-010 -4.93792e-011 -8.21189e-011
288
root  -1.14844 33.9804 13.0795 -31.4195 -74.9441 31.8561
RightUpLeg  2.40948 -26.6253 -49.858
RightLeg  -0.753313 -23.3547 -3.31976
RightFoot  46.0979 -6.32889 12.1566
RightToes  -6.40286e-010 0 -3.6325e-017
Spine  27.4917 11.1943 21.5135
Spine1  -26.6831 14.3978 -11.5215
HEad  19.4562 -46.1745 -6.68321
LeftShoulder1  -0.148548 12.3118 7.74257
LeftArm  -37.1362 16.6562 -14.3333
LeftForeArm  -21.6591 -14.505 -3.44958
LeftHand  -0.709236 2.55673 28.7487
RightShoulder  -0.206986 -6.92545 -2.73171
RightArm  -38.8259 -23.6912 5.64434
RightForeArm  -43.9126 15.5494 0.650021
RightHand  -0.559088 -0.44976 -13.1409
LeftUpLeg  -27.9397 40.2316 13.0068
LeftLeg  58.6365 -11.3505 -18.775
LeftFoot  -9.04115 0.445512 -19.3928
LeftToes  -2.09187e-010 -4.93792e-011 -8.21189e-011
289
root  -1.26519 33.9866 13.2603 -31.1044 -76.1614 30.8926
RightUpLeg  2.01757 -26.4767 -48.9343
RightLeg  -0.267784 -24.1484 -3.27529
RightFoot  46.5204 -6.18941 11.8064
RightToes  -6.40286e-010 0 -3.6325e-017
Spine  27.1703 10.9166 18.7991
Spine1  -26.2659 13.7067 -8.89775
HEad  16.3504 -42.293 -6.98372
LeftShoulder1  0.0213504 12.5484 9.9243
LeftArm  -39.0868 11.4432 -9.76022
LeftForeArm  -18.3151 -13.6272 -3.06894
LeftHand  -0.797856 2.19089 28.6441
RightShoulder  -0.219998 -6.38717 -0.945288
RightArm  -42.076 -28.282 12.6408
RightForeArm  -40.9144 17.2749 1.76416
RightHand  -0.57707 -0.542274 -13.8101
LeftUpLeg  -26.4916 36.5652 14.4052
LeftLeg  58.3427 -9.74165 -16.0327
LeftFoot  -11.1865 0.0967547 -21.2617
LeftToes  -2.09187e-010 -4.93792e-011 -8.21189e-011
290
root  -1.37653 34.0448 13.1662 -30.432 -77.8722 29.8102
RightUpLeg  0.95498 -26.6257 -47.6114
RightLeg  0.917879 -24.4964 -3.18401
RightFoot  46.4964 -6.73567 12.7973
RightToes  -6.40286e-010 0 -3.6325e-017
Spine  27.085 10.741 15.5166
Spine1  -26.3991 13.0194 -5.76434
HEad  13.7559 -37.1416 -8.2013
LeftShoulder1  0.252434 12.849 12.7242
LeftArm  -41.241 6.39173 -5.61885
LeftForeArm  -15.1582 -12.7006 -2.77514
LeftHand  -0.751689 2.28254 27.782
RightShoulder  -0.228904 -5.91641 1.124
RightArm  -44.6141 -32.5564 19.5363
RightForeArm  -37.3434 18.8551 3.16675
RightHand  -0.590035 -0.624175 -14.3524
LeftUpLeg  -25.082 33.565 15.9172
LeftLeg  57.1475 -7.89153 -12.4318
LeftFoot  -12.726 -0.195181 -22.2553
LeftToes  -2.09187e-010 -4.93792e-011 -8.21189e-011
291
root  -1.43532 34.1758 12.8172 -31.4721 -80.2203 30.4269
RightUpLeg  -1.38214 -26.6043 -45.7444
RightLeg  3.63264 -22.5382 -3.66258
RightFoot  45.3008 -7.708 14.8879
RightToes  -6.40286e-010 0 -3.6325e-017
Spine  27.3519 10.646 11.2913
Spine1  -26.6278 12.3382 -1.39922
HEad  10.3481 -30.8407 -9.55749
LeftShoulder1  0.505921 13.2306 15.5558
LeftArm  -42.4011 2.51494 -1.35548
LeftForeArm  -11.7098 -12.0075 -2.8217
LeftHand  -0.617181 2.75574 26.939
RightShoulder  -0.229854 -5.54986 3.05769
RightArm  -46.1603 -35.7643 26.5121
RightForeArm  -33.7047 20.1595 4.40102
RightHand  -0.605491 -0.664119 -14.8475
LeftUpLeg  -23.0958 31.0586 17.5349
LeftLeg  54.8913 -5.46034 -7.80694
LeftFoot  -13.5878 -0.368086 -22.5937
LeftToes  -2.09187e-010 -4.93792e-011 -8.21189e-011
292
root  -1.40012 34.3806 12.2231 -34.9283 -83.0121 33.26
RightUpLeg  -4.9704 -25.5198 -43.3389
RightLeg  8.15477 -18.9661 -4.41068
RightFoot  43.3358 -8.36557 16.7282
RightToes  -6.40286e-010 0 -3.6325e-017
Spine  27.9425 10.4417 6.37884
Spine1  -26.6234 11.5191 4.20212
HEad  5.99359 -23.7765 -10.8708
LeftShoulder1  0.767768 13.7701 18.1236
LeftArm  -42.413 -0.15934 2.91142
LeftForeArm  -7.42607 -11.3343 -3.10456
LeftHand  -0.587209 2.82143 26.3021
RightShoulder  -0.216462 -5.20463 4.71164
RightArm  -46.7148 -37.549 33.2043
RightForeArm  -31.0046 20.6809 4.91296
RightHand  -0.61585 -0.680942 -15.1529
LeftUpLeg  -20.6449 28.002 19.5054
LeftLeg  52.0195 -2.26643 -2.63805
LeftFoot  -13.0317 -0.272598 -23.5376
LeftToes  -2.09187e-010 -4.93792e-011 -8.21189e-011
293
root  -1.28419 34.679 11.3944 -27.5866 -86.0033 25.3232
RightUpLeg  -9.03781 -23.5317 -39.9921
RightLeg  13.2788 -15.2289 -4.55735
RightFoot  41.7767 -8.27192 17.0806
RightToes  -6.40286e-010 0 -3.6325e-017
Spine  28.6312 9.93485 1.7131
Spine1  -26.5585 10.5038 10.4769
HEad  1.51451 -16.2989 -12.2653
LeftShoulder1  1.05844 14.4009 20.6344
LeftArm  -42.3573 -2.47328 6.29648
LeftForeArm  -2.86325 -10.5157 -3.35392
LeftHand  -0.667858 2.37153 25.4667
RightShoulder  -0.178516 -4.76978 6.18501
RightArm  -46.2523 -38.4543 38.7486
RightForeArm  -29.8328 19.9879 4.64394
RightHand  -0.615034 -0.68276 -15.1381
LeftUpLeg  -18.3902 24.0018 22.3806
LeftLeg  48.989 1.45494 2.2474
LeftFoot  -10.3602 0.284207 -25.3468
LeftToes  -2.09187e-010 -4.93792e-011 -8.21189e-011
294
root  -1.14894 35.1198 10.3751 -18.6717 -89.501 16.2302
RightUpLeg  -12.916 -22.5053 -34.9513
RightLeg  17.101 -10.8382 -3.89413
RightFoot  41.3565 -7.36496 15.4289
RightToes  -6.40286e-010 0 -3.6325e-017
Spine  28.8321 9.11337 -2.06388
Spine1  -26.1023 9.35074 17.2724
HEad  -2.51914 -8.73845 -13.3802
LeftShoulder1  1.35379 14.862 23.1067
LeftArm  -42.7612 -5.03748 8.33514
LeftForeArm  0.888035 -9.70419 -3.53419
LeftHand  -0.697596 2.12553 24.6061
RightShoulder  -0.130656 -4.36225 7.26787
RightArm  -44.6823 -39.1933 42.9327
RightForeArm  -29.7472 18.3218 4.01807
RightHand  -0.606315 -0.721751 -15.0456
LeftUpLeg  -16.3133 20.5165 26.5031
LeftLeg  45.4053 5.09998 5.94254
LeftFoot  -5.72591 1.38221 -27.0656
LeftToes  -2.09187e-010 -4.93792e-011 -8.21189e-011
295
root  -1.04449 35.6918 9.17701 101.438 -85.6825 -103.66
RightUpLeg  -16.3496 -22.4239 -28.4601
RightLeg  19.3508 -6.38992 -2.70105
RightFoot  41.6832 -6.00712 12.6317
RightToes  -6.40286e-010 0 -3.6325e-017
Spine  28.1918 8.04279 -5.11994
Spine1  -24.505 7.88189 24.0624
HEad  -5.77573 -1.25973 -13.5482
LeftShoulder1  1.57149 14.9422 25.1351
LeftArm  -43.0502 -7.87115 9.61144
LeftForeArm  3.88538 -8.95463 -3.78136
LeftHand  -0.65772 2.2485 24.1141
RightShoulder  -0.111528 -4.2193 7.62008
RightArm  -42.3747 -39.8533 46.0692
RightForeArm  -29.5627 16.052 3.53934
RightHand  -0.602503 -0.788166 -15.1598
LeftUpLeg  -13.5207 19.0664 31.8016
LeftLeg  40.408 8.29713 7.89608
LeftFoot  0.376274 3.02062 -28.8271
LeftToes  -2.09187e-010 -4.93792e-011 -8.21189e-011
